<?xml version="1.0" encoding="iso-8859-1"?>
<svg xmlns="http://www.w3.org/2000/svg" xmlns:xlink="http://www.w3.org/1999/xlink" version="1.1" viewBox="0 0 409.222 409.222" enable-background="new 0 0 409.222 409.222" width="512px" height="512px">
  <path d="m289.97,247.764c0,5.523-4.478,10-10,10h-50.808c-5.522,0-10-4.477-10-10s4.478-10 10-10h50.808c5.523,0 10,4.477 10,10zm-34.378,20.602h-26.43c-5.522,0-10,4.477-10,10s4.478,10 10,10h26.43c5.522,0 10-4.477 10-10s-4.477-10-10-10zm-97.47-185.387c0-19.248 20.421-34.325 46.489-34.325s46.489,15.078 46.489,34.325c0,19.249-20.421,34.326-46.489,34.326s-46.489-15.077-46.489-34.326zm20,0c0,6.763 11.328,14.326 26.489,14.326s26.489-7.563 26.489-14.326c0-6.762-11.328-14.325-26.489-14.325s-26.489,7.563-26.489,14.325zm41.041,134.183c0,5.523 4.478,10 10,10h50.808c5.522,0 10-4.477 10-10s-4.478-10-10-10h-50.808c-5.523,0-10,4.477-10,10zm148.52,182.06c0,5.523-4.478,10-10,10h-306.144c-5.522,0-10-4.477-10-10s4.478-10 10-10h21.44v-62.979-316.243c0-5.523 4.478-10 10-10h243.262c5.522,0 10,4.477 10,10v379.222h21.442c5.523,0 10,4.477 10,10zm-251.943-62.979h-22.761v52.979h22.761v-52.979zm157.742,0h-137.742v52.979h137.742v-52.979zm42.759,0h-22.759v52.979h22.759v-52.979zm0-316.243h-223.262v296.243h32.655c0.07-0.001 0.141-0.001 0.211,0h157.531c0.07-0.001 0.141-0.001 0.211,0h32.653v-296.243zm-186.989,207.162h26.43c5.522,0 10-4.477 10-10s-4.478-10-10-10h-26.43c-5.522,0-10,4.477-10,10s4.478,10 10,10zm0-61.204h50.807c5.522,0 10-4.477 10-10s-4.478-10-10-10h-50.807c-5.522,0-10,4.477-10,10s4.478,10 10,10zm0,30.602h50.807c5.522,0 10-4.477 10-10s-4.478-10-10-10h-50.807c-5.522,0-10,4.477-10,10s4.478,10 10,10z" fill="#edf2f6"/>
</svg>
