<?xml version="1.0" encoding="iso-8859-1"?>
<!-- Generator: Adobe Illustrator 18.0.0, SVG Export Plug-In . SVG Version: 6.00 Build 0)  -->
<!DOCTYPE svg PUBLIC "-//W3C//DTD SVG 1.1//EN" "http://www.w3.org/Graphics/SVG/1.1/DTD/svg11.dtd">
<svg xmlns="http://www.w3.org/2000/svg" xmlns:xlink="http://www.w3.org/1999/xlink" version="1.1" id="Capa_1" x="0px" y="0px" viewBox="0 0 494.085 494.085" style="enable-background:new 0 0 494.085 494.085;" xml:space="preserve" width="512px" height="512px">
<g>
	<path d="M469.568,55.098H322.479V9.955c0-5.495-4.461-9.955-9.96-9.955H189.392c-5.5,0-9.961,4.46-9.961,9.955v123.14   c0,5.494,4.461,9.954,9.961,9.954h123.127c5.499,0,9.96-4.46,9.96-9.954V87.951h130.663v143.33h-20.068l8.55-20.813   c0.324-0.778,0.128-1.661-0.479-2.23c-0.611-0.57-1.506-0.707-2.264-0.338l-76.471,37.795c-0.77,0.377-1.254,1.156-1.254,2.015   s0.484,1.636,1.254,2.013l76.471,37.795c0.758,0.369,1.652,0.233,2.264-0.337c0.607-0.567,0.804-1.45,0.479-2.229l-8.55-20.814   h36.494c9.081,0,16.433-7.355,16.433-16.427V71.524C486,62.454,478.649,55.098,469.568,55.098z M289.624,110.194h-77.34v-77.34   h77.34V110.194z" fill="#edf2f6"/>
	<path d="M312.519,175.518H189.392c-5.5,0-9.961,4.46-9.961,9.954v45.809H24.511c-9.08,0-16.427,7.354-16.427,16.428v176.184   c0,9.072,7.347,16.428,16.427,16.428h36.496l-8.551,20.813c-0.319,0.778-0.129,1.661,0.478,2.23   c0.612,0.57,1.514,0.707,2.266,0.337l76.475-37.794c0.767-0.377,1.25-1.156,1.25-2.015s-0.483-1.636-1.25-2.013L55.2,384.085   c-0.752-0.369-1.653-0.233-2.266,0.336c-0.606,0.568-0.797,1.451-0.478,2.229l8.551,20.815H40.938v-143.33h138.493v44.477   c0,5.495,4.461,9.955,9.961,9.955h123.127c5.499,0,9.96-4.46,9.96-9.955v-123.14C322.479,179.979,318.018,175.518,312.519,175.518z    M289.624,285.713h-77.34v-77.339h77.34V285.713z" fill="#edf2f6"/>
	<path d="M312.519,351.036H189.392c-5.5,0-9.961,4.461-9.961,9.955v123.14c0,5.494,4.461,9.954,9.961,9.954h123.127   c5.499,0,9.96-4.46,9.96-9.954v-123.14C322.479,355.497,318.018,351.036,312.519,351.036z M289.624,461.23h-77.34v-77.339h77.34   V461.23z" fill="#edf2f6"/>
</g>
<g>
</g>
<g>
</g>
<g>
</g>
<g>
</g>
<g>
</g>
<g>
</g>
<g>
</g>
<g>
</g>
<g>
</g>
<g>
</g>
<g>
</g>
<g>
</g>
<g>
</g>
<g>
</g>
<g>
</g>
</svg>
